<svg width="21" height="19" viewBox="0 0 21 19" fill="none" xmlns="http://www.w3.org/2000/svg">
<path fill-rule="evenodd" clip-rule="evenodd" d="M4.76331 16.851C4.76331 16.0756 5.42636 15.4479 6.24543 15.4479C7.05475 15.4479 7.7178 16.0756 7.7178 16.851C7.7178 17.6171 7.05475 18.2448 6.24543 18.2448C5.42636 18.2448 4.76331 17.6171 4.76331 16.851ZM15.733 16.851C15.733 16.0756 16.396 15.4479 17.2151 15.4479C18.0244 15.4479 18.6875 16.0756 18.6875 16.851C18.6875 17.6171 18.0244 18.2448 17.2151 18.2448C16.396 18.2448 15.733 17.6171 15.733 16.851Z" fill="#808080"/>
<path fill-rule="evenodd" clip-rule="evenodd" d="M18.6876 3.70679C19.2824 3.70679 19.6725 3.90064 20.0625 4.32525C20.4525 4.74987 20.5208 5.3591 20.433 5.91202L19.5067 11.9674C19.3312 13.1314 18.2781 13.9889 17.0398 13.9889H6.40162C5.10476 13.9889 4.03218 13.0474 3.92492 11.8299L3.02784 1.76741L1.55547 1.52741C1.16544 1.46279 0.892414 1.10279 0.96067 0.733562C1.02893 0.3551 1.40921 0.10587 1.80899 0.161254L4.13456 0.493562C4.46609 0.54987 4.70986 0.807408 4.73911 1.12125L4.92438 3.18895C4.95363 3.48525 5.20715 3.70679 5.51917 3.70679H18.6876ZM12.7787 8.50587H15.4796C15.8892 8.50587 16.2109 8.19202 16.2109 7.81356C16.2109 7.42587 15.8892 7.12125 15.4796 7.12125H12.7787C12.3691 7.12125 12.0473 7.42587 12.0473 7.81356C12.0473 8.19202 12.3691 8.50587 12.7787 8.50587Z" fill="#808080"/>
</svg>
