<svg width="19" height="20" viewBox="0 0 19 20" fill="none" xmlns="http://www.w3.org/2000/svg">
<path fill-rule="evenodd" clip-rule="evenodd" d="M14.319 13.433C15.566 11.8253 16.1537 9.80302 15.9625 7.77745C15.7714 5.75187 14.8157 3.87521 13.29 2.52924C11.7643 1.18327 9.78307 0.469102 7.74947 0.53203C5.71587 0.594958 3.78263 1.43025 2.34304 2.86798C0.902196 4.30671 0.0641695 6.2407 -0.000262313 8.27585C-0.0646942 10.311 0.649318 12.2941 1.99627 13.8211C3.34322 15.3481 5.22174 16.304 7.24901 16.4941C9.27629 16.6841 11.2997 16.094 12.907 14.844L12.95 14.889L17.192 19.132C17.285 19.2249 17.3953 19.2986 17.5166 19.3489C17.638 19.3992 17.7681 19.425 17.8995 19.425C18.0309 19.425 18.161 19.3992 18.2824 19.3489C18.4038 19.2986 18.5141 19.2249 18.607 19.132C18.7 19.0391 18.7736 18.9288 18.8239 18.8074C18.8742 18.686 18.9001 18.5559 18.9001 18.4245C18.9001 18.2931 18.8742 18.163 18.8239 18.0416C18.7736 17.9202 18.7 17.8099 18.607 17.717L14.364 13.475C14.3494 13.4606 14.3344 13.4466 14.319 13.433ZM12.243 4.28298C12.8076 4.83846 13.2567 5.50023 13.5642 6.23012C13.8718 6.96001 14.0318 7.74357 14.035 8.5356C14.0383 9.32764 13.8846 10.1125 13.583 10.8448C13.2814 11.5772 12.8378 12.2426 12.2777 12.8027C11.7177 13.3627 11.0523 13.8064 10.3199 14.108C9.58753 14.4096 8.8027 14.5632 8.01066 14.56C7.21862 14.5568 6.43506 14.3967 5.70518 14.0892C4.97529 13.7816 4.31352 13.3326 3.75804 12.768C2.64796 11.6397 2.0287 10.1184 2.03514 8.5356C2.04159 6.95278 2.67322 5.43663 3.79245 4.31739C4.91168 3.19816 6.42784 2.56653 8.01066 2.56008C9.59348 2.55364 11.1147 3.1729 12.243 4.28298Z" fill="#111111"/>
</svg>
