<svg width="15" height="15" viewBox="0 0 15 15" fill="none" xmlns="http://www.w3.org/2000/svg">
<path d="M11.4889 14.5444C11.3869 14.5448 11.2874 14.513 11.2045 14.4535L7.30997 11.63L3.41539 14.4535C3.33219 14.5139 3.23195 14.5462 3.12916 14.5458C3.02637 14.5455 2.92637 14.5124 2.84361 14.4514C2.76084 14.3905 2.69961 14.3048 2.66875 14.2068C2.6379 14.1087 2.63902 14.0034 2.67197 13.906L4.19092 9.40702L0.254246 6.70737C0.168975 6.64896 0.104618 6.56481 0.0705766 6.46722C0.0365357 6.36963 0.0345953 6.26371 0.065039 6.16493C0.0954828 6.06616 0.156715 5.97971 0.23979 5.91822C0.322864 5.85672 0.423427 5.8234 0.526785 5.82313H5.38342L6.84908 1.31262C6.88065 1.21524 6.94226 1.13036 7.02506 1.07016C7.10786 1.00996 7.2076 0.977539 7.30997 0.977539C7.41234 0.977539 7.51208 1.00996 7.59488 1.07016C7.67768 1.13036 7.73929 1.21524 7.77086 1.31262L9.23652 5.82465H14.0932C14.1966 5.8246 14.2974 5.85768 14.3807 5.91906C14.4641 5.98043 14.5256 6.06688 14.5562 6.16573C14.5868 6.26457 14.585 6.37064 14.551 6.46838C14.517 6.56612 14.4526 6.6504 14.3672 6.70888L10.429 9.40702L11.9471 13.9048C11.9717 13.9776 11.9786 14.0553 11.9672 14.1313C11.9559 14.2073 11.9267 14.2795 11.8819 14.342C11.8371 14.4045 11.7782 14.4554 11.7098 14.4906C11.6415 14.5258 11.5658 14.5442 11.4889 14.5444Z" fill="#FF8610"/>
</svg>
