<svg width="11" height="14" viewBox="0 0 11 14" fill="none" xmlns="http://www.w3.org/2000/svg">
<path d="M5.45 6.41835C4.95745 6.41835 4.48508 6.2404 4.1368 5.92364C3.78852 5.60688 3.59286 5.17727 3.59286 4.72931C3.59286 4.28135 3.78852 3.85174 4.1368 3.53498C4.48508 3.21822 4.95745 3.04027 5.45 3.04027C5.94254 3.04027 6.41492 3.21822 6.7632 3.53498C7.11148 3.85174 7.30714 4.28135 7.30714 4.72931C7.30714 4.95112 7.25911 5.17075 7.16578 5.37568C7.07245 5.5806 6.93565 5.7668 6.7632 5.92364C6.59075 6.08048 6.38602 6.2049 6.1607 6.28978C5.93538 6.37466 5.69388 6.41835 5.45 6.41835ZM5.45 0C4.07087 0 2.74823 0.498265 1.77304 1.38518C0.797855 2.2721 0.25 3.47502 0.25 4.72931C0.25 8.27629 5.45 13.5123 5.45 13.5123C5.45 13.5123 10.65 8.27629 10.65 4.72931C10.65 3.47502 10.1021 2.2721 9.12695 1.38518C8.15177 0.498265 6.82913 0 5.45 0Z" fill="#004422"/>
</svg>
