<svg width="181" height="181" viewBox="0 0 181 181" fill="none" xmlns="http://www.w3.org/2000/svg">
    <circle cx="90.2486" cy="90.2486" r="90.2486" fill="#009944" />
    <mask id="mask0_17_5373" style="mask-type:alpha" maskUnits="userSpaceOnUse" x="1" y="1"
        width="180" height="180">
        <circle cx="90.8352" cy="90.8351" r="89.662" fill="#AA1234" />
    </mask>
    <g mask="url(#mask0_17_5373)">
        <path d="M45.2671 141.883L121.64 115.34L161.034 154.568L109.493 206.109L45.2671 141.883Z"
            fill="#004422" />
    </g>
    <path
        d="M108.433 19.6082C116.745 32.01 109.354 38.2947 101.059 41.9818C77.2602 50.6128 64.6069 53.797 60.2498 59.2438C55.5571 64.7408 60.5009 70.3049 63.7694 71.9808C69.8698 75.3997 77.9869 79.3828 81.2829 80.947C85.1373 83.2095 81.7854 85.3045 80.445 87.0642C79.1877 89.2429 82.2047 90.9467 84.2158 92.092C87.7955 94.1615 89.2907 95.6749 89.7527 96.4277C89.8895 96.6507 89.98 96.9003 90.0831 97.1407C90.6443 98.45 90.6029 99.8247 90.5005 100.388C93.5172 96.4996 89.7463 92.3433 87.4838 90.7512C84.8694 88.472 87.7352 85.6117 89.4949 84.4665C92.3775 82.3883 92.3437 81.0308 91.7575 80.1091C89.0757 76.841 84.0203 75.4724 82.2885 74.9137C74.1099 72.3663 72.8474 68.8804 73.2385 67.4558C74.5122 64.037 80.1377 62.847 82.7912 62.6795C101.293 60.1991 108.013 58.4058 118.321 51.2832C129.381 42.7359 115.835 26.5074 108.433 19.6082Z"
        fill="white" />
    <rect x="135.75" y="142.855" width="91.0028" height="5.04135" rx="2.52067"
        transform="rotate(-180 135.75 142.855)" fill="white" />
    <path
        d="M131.096 136.263H49.4007C49.4007 121.021 61.7568 108.6 76.9988 108.6H103.498C118.74 108.6 131.096 121.021 131.096 136.263Z"
        fill="white" />
    <path
        d="M86.4778 105.667C86.4778 104.973 87.0406 104.41 87.7348 104.41H92.7626C93.4568 104.41 94.0195 104.973 94.0195 105.667C94.0195 106.361 93.4568 106.924 92.7626 106.924H87.7348C87.0406 106.924 86.4778 106.361 86.4778 105.667Z"
        fill="white" />
</svg>
