<svg width="12" height="15" viewBox="0 0 12 15" fill="none" xmlns="http://www.w3.org/2000/svg">
<path d="M5.92727 9.5C5.30037 9.5 4.76751 9.28125 4.32868 8.84375C3.88985 8.40625 3.67043 7.875 3.67043 7.25V2.75C3.67043 2.125 3.88985 1.59375 4.32868 1.15625C4.76751 0.71875 5.30037 0.5 5.92727 0.5C6.55417 0.5 7.08704 0.71875 7.52587 1.15625C7.9647 1.59375 8.18411 2.125 8.18411 2.75V7.25C8.18411 7.875 7.9647 8.40625 7.52587 8.84375C7.08704 9.28125 6.55417 9.5 5.92727 9.5ZM5.17499 14.75V12.4437C3.87104 12.2687 2.79277 11.6875 1.94019 10.7C1.08761 9.7125 0.661316 8.5625 0.661316 7.25H2.16588C2.16588 8.2875 2.53274 9.17175 3.26646 9.90275C3.99968 10.6342 4.88662 11 5.92727 11C6.96793 11 7.85511 10.6342 8.58884 9.90275C9.32206 9.17175 9.68867 8.2875 9.68867 7.25H11.1932C11.1932 8.5625 10.7669 9.7125 9.91435 10.7C9.06177 11.6875 7.9835 12.2687 6.67955 12.4437V14.75H5.17499ZM5.92727 8C6.14042 8 6.31921 7.928 6.46365 7.784C6.60758 7.6405 6.67955 7.4625 6.67955 7.25V2.75C6.67955 2.5375 6.60758 2.35925 6.46365 2.21525C6.31921 2.07175 6.14042 2 5.92727 2C5.71413 2 5.53559 2.07175 5.39165 2.21525C5.24721 2.35925 5.17499 2.5375 5.17499 2.75V7.25C5.17499 7.4625 5.24721 7.6405 5.39165 7.784C5.53559 7.928 5.71413 8 5.92727 8Z" fill="black" fill-opacity="0.74"/>
</svg>
