<svg width="14" height="14" viewBox="0 0 14 14" fill="none" xmlns="http://www.w3.org/2000/svg">
<path d="M12.7809 13.75L8.04157 9.025C7.66543 9.325 7.23287 9.5625 6.74389 9.7375C6.25491 9.9125 5.73458 10 5.18291 10C3.81627 10 2.65976 9.52825 1.71339 8.58475C0.766526 7.64075 0.293091 6.4875 0.293091 5.125C0.293091 3.7625 0.766526 2.60925 1.71339 1.66525C2.65976 0.72175 3.81627 0.25 5.18291 0.25C6.54955 0.25 7.70631 0.72175 8.65317 1.66525C9.59954 2.60925 10.0727 3.7625 10.0727 5.125C10.0727 5.675 9.98496 6.19375 9.80943 6.68125C9.6339 7.16875 9.39567 7.6 9.09476 7.975L13.8341 12.7L12.7809 13.75ZM5.18291 8.5C6.12326 8.5 6.92268 8.172 7.58118 7.516C8.23917 6.8595 8.56817 6.0625 8.56817 5.125C8.56817 4.1875 8.23917 3.3905 7.58118 2.734C6.92268 2.078 6.12326 1.75 5.18291 1.75C4.24256 1.75 3.44314 2.078 2.78464 2.734C2.12665 3.3905 1.79765 4.1875 1.79765 5.125C1.79765 6.0625 2.12665 6.8595 2.78464 7.516C3.44314 8.172 4.24256 8.5 5.18291 8.5Z" fill="black" fill-opacity="0.74"/>
</svg>
