<svg width="34" height="36" viewBox="0 0 34 36" fill="none" xmlns="http://www.w3.org/2000/svg">
<path d="M14.4816 6.74401C15.6041 4.35021 19.0087 4.35021 20.1312 6.74401L21.6883 10.0646C22.1298 11.0059 23.0111 11.6655 24.0387 11.8236L27.7807 12.3994C30.2889 12.7853 31.3117 15.8449 29.5398 17.6616L26.6387 20.6359C25.9475 21.3446 25.6337 22.3391 25.7928 23.3161L26.449 27.3432C26.8679 29.9143 24.1377 31.8363 21.8585 30.5746L18.8175 28.8911C17.8773 28.3707 16.7355 28.3707 15.7953 28.8911L12.7542 30.5746C10.4751 31.8363 7.74486 29.9143 8.16379 27.3432L8.81994 23.3161C8.97913 22.3391 8.66524 21.3446 7.97407 20.6359L5.07301 17.6616C3.30107 15.8449 4.32384 12.7853 6.83207 12.3994L10.5741 11.8236C11.6017 11.6655 12.483 11.0059 12.9244 10.0646L14.4816 6.74401Z" fill="#FEAD1D"/>
<circle cx="30.3061" cy="3.32" r="1.56" fill="#FEAD1D"/>
<circle opacity="0.5" cx="13.1461" cy="34.6932" r="1.04" fill="#FEAD1D"/>
<circle cx="2.74605" cy="24.2932" r="2.08" fill="#FEAD1D"/>
<circle opacity="0.6" cx="29.2661" cy="28.9732" r="0.52" fill="#FEAD1D"/>
<circle cx="9.50605" cy="8.52" r="0.52" fill="#FEAD1D"/>
</svg>
