<svg width="27" height="27" viewBox="0 0 27 27" fill="none" xmlns="http://www.w3.org/2000/svg">
<path d="M11.0412 2.74398C12.1638 0.35018 15.5684 0.35018 16.6909 2.74398L18.248 6.06454C18.6895 7.00589 19.5708 7.66549 20.5984 7.8236L24.3404 8.39934C26.8486 8.78525 27.8714 11.8448 26.0995 13.6615L23.1984 16.6359C22.5072 17.3445 22.1933 18.3391 22.3525 19.3161L23.0087 23.3431C23.4276 25.9143 20.6974 27.8362 18.4182 26.5746L15.3771 24.8911C14.437 24.3707 13.2952 24.3707 12.355 24.8911L9.31394 26.5746C7.03479 27.8362 4.30455 25.9143 4.72348 23.3432L5.37963 19.3161C5.53882 18.3391 5.22493 17.3445 4.53376 16.6359L1.6327 13.6615C-0.139238 11.8448 0.883531 8.78525 3.39176 8.39934L7.13376 7.8236C8.16137 7.66549 9.04271 7.00589 9.48414 6.06454L11.0412 2.74398Z" fill="#FEAD1D"/>
</svg>
