<svg width="27" height="27" viewBox="0 0 27 27" fill="none" xmlns="http://www.w3.org/2000/svg">
<path opacity="0.3" d="M10.9212 2.74398C12.0438 0.35018 15.4484 0.35018 16.5709 2.74398L18.128 6.06454C18.5695 7.00589 19.4508 7.66549 20.4784 7.8236L24.2204 8.39934C26.7286 8.78525 27.7514 11.8448 25.9795 13.6615L23.0784 16.6359C22.3872 17.3445 22.0733 18.3391 22.2325 19.3161L22.8887 23.3431C23.3076 25.9143 20.5774 27.8362 18.2982 26.5746L15.2571 24.8911C14.317 24.3707 13.1752 24.3707 12.235 24.8911L9.19394 26.5746C6.91479 27.8362 4.18455 25.9143 4.60349 23.3432L5.25964 19.3161C5.41883 18.3391 5.10494 17.3445 4.41376 16.6359L1.5127 13.6615C-0.259233 11.8448 0.763536 8.78525 3.27176 8.39934L7.01376 7.8236C8.04138 7.66549 8.92272 7.00589 9.36414 6.06454L10.9212 2.74398Z" fill="#FEAD1D"/>
</svg>
