<svg width="17" height="21" viewBox="0 0 17 21" fill="none" xmlns="http://www.w3.org/2000/svg">
<path d="M15.993 16.7569L15.993 16.7563L15.173 6.22375L14.9138 6.24327L15.173 6.22309L15.173 6.22315C15.1117 5.41343 14.4397 4.77309 13.6321 4.77309H12.2681C12.1727 2.72463 10.5072 1.08069 8.46326 1.08069C6.41935 1.08069 4.75383 2.72463 4.65838 4.77309H3.29444C2.4869 4.77309 1.81463 5.41334 1.75365 6.22202C1.75365 6.22213 1.75364 6.22224 1.75363 6.22235L0.933446 16.7577L0.933395 16.7584C0.864615 17.6724 1.17533 18.5828 1.78779 19.2568C2.40043 19.9311 3.26948 20.3187 4.17359 20.3187H12.7529C13.657 20.3187 14.526 19.9311 15.1387 19.2568L14.9463 19.082L15.1387 19.2568C15.7512 18.5827 16.0619 17.6724 15.993 16.7569ZM12.2725 5.03307H12.0125V4.95885L12.2725 5.03307ZM3.34102 6.38944H4.65406V7.47976C4.65406 7.92134 5.00654 8.28793 5.45178 8.28793C5.89703 8.28793 6.24951 7.92134 6.24951 7.47976V6.38944H10.677V7.47976C10.677 7.92134 11.0295 8.28793 11.4747 8.28793C11.92 8.28793 12.2725 7.92134 12.2725 7.47976V6.38944H13.5855L14.4023 16.8812C14.4023 16.8814 14.4023 16.8816 14.4023 16.8818C14.4381 17.3591 14.2826 17.8124 13.9648 18.1622C13.6471 18.5119 13.218 18.7024 12.7529 18.7024H4.17363C3.70856 18.7024 3.27944 18.5119 2.96167 18.1622C2.64376 17.8123 2.4884 17.3589 2.52416 16.883C2.52417 16.8829 2.52418 16.8828 2.52418 16.8827L3.34102 6.38944ZM6.25689 4.77309C6.34981 3.60874 7.30831 2.69704 8.46326 2.69704C9.6182 2.69704 10.5767 3.60877 10.6696 4.77309H6.25689Z" fill="#009944" stroke="#009944" stroke-width="0.519947"/>
</svg>
