<svg width="26" height="26" viewBox="0 0 26 26" fill="none" xmlns="http://www.w3.org/2000/svg">
<path d="M12.0004 4.33323H4.72043C4.16878 4.33323 3.63972 4.55238 3.24964 4.94245C2.85957 5.33253 2.64043 5.86158 2.64043 6.41323V20.9732C2.64043 21.5249 2.85957 22.0539 3.24964 22.444C3.63972 22.8341 4.16878 23.0532 4.72043 23.0532H19.2804C19.8321 23.0532 20.3611 22.8341 20.7512 22.444C21.1413 22.0539 21.3604 21.5249 21.3604 20.9732V13.6932" stroke="#004422" stroke-width="2.08" stroke-linecap="round" stroke-linejoin="round"/>
<path d="M19.8004 2.77321C20.2142 2.35948 20.7753 2.12704 21.3604 2.12704C21.9455 2.12704 22.5067 2.35948 22.9204 2.77321C23.3342 3.18695 23.5666 3.7481 23.5666 4.33321C23.5666 4.91833 23.3342 5.47948 22.9204 5.89321L13.0404 15.7732L8.88043 16.8132L9.92043 12.6532L19.8004 2.77321Z" stroke="#004422" stroke-width="2.08" stroke-linecap="round" stroke-linejoin="round"/>
</svg>
